<?xml version="1.0" encoding="UTF-8"?>
<svg xmlns="http://www.w3.org/2000/svg" width="336" height="76" viewBox="0 0 336 76" fill="none">
  <path d="M1.42876 58.8565C3.3197 59.8114 6.22353 60.7674 9.22104 60.7674C12.447 60.7674 14.1527 59.4478 14.1527 57.4465C14.1527 55.5356 12.6776 54.4436 8.94412 53.124C3.78085 51.3492 0.414833 48.5282 0.414833 44.0695C0.414833 38.8368 4.84006 34.8333 12.1712 34.8333C15.6741 34.8333 18.2568 35.5616 20.1004 36.3804L18.5337 41.9758C17.2882 41.3856 15.076 40.5211 12.0322 40.5211C8.98942 40.5211 7.51435 41.8854 7.51435 43.4773C7.51435 45.4338 9.26632 46.2994 13.2767 47.7998C18.7632 49.8021 21.3459 52.6232 21.3459 56.9457C21.3459 62.087 17.3345 66.4999 8.80517 66.4999C5.25593 66.4999 1.75197 65.545 0 64.5891L1.42876 58.8565Z" fill="#DB1E17"></path>
  <path d="M36.6289 55.6278C33.0916 55.5827 30.35 56.4364 30.35 59.0867C30.35 60.8392 31.5001 61.6929 33.0037 61.6929C34.684 61.6929 36.0543 60.5694 36.4966 59.177C36.5854 58.8179 36.6289 58.4136 36.6289 58.0093V55.6278ZM43.1734 60.6597C43.1734 62.7714 43.2622 64.7937 43.4824 66.0065H37.4246L37.0277 63.8046H36.8945C35.4797 65.5571 33.2693 66.5001 30.7044 66.5001C26.327 66.5001 23.7177 63.2659 23.7177 59.7609C23.7177 54.0549 28.7585 51.3152 36.4077 51.3594V51.0444C36.4077 49.8767 35.7897 48.2145 32.4726 48.2145C30.2621 48.2145 27.9184 48.9789 26.5037 49.8767L25.2657 45.4738C26.7692 44.6201 29.732 43.5417 33.6662 43.5417C40.874 43.5417 43.1734 47.8553 43.1734 53.0216V60.6597Z" fill="#DB1E17"></path>
  <path d="M52.6027 43.5417L55.8583 54.5136C56.2158 55.8396 56.661 57.485 56.9289 58.6741H57.0624C57.3751 57.485 57.7316 55.7936 58.0443 54.5136L60.7204 43.5417H67.9906L62.9064 58.2628C59.7842 67.1309 57.6878 70.6974 55.2339 72.9379C52.8696 75.0396 50.3718 75.7714 48.6768 76.0001L47.2496 70.1023C48.0971 69.9655 49.1677 69.5541 50.1935 68.9141C51.2203 68.366 52.3347 67.2687 53.004 66.1255C53.2271 65.805 53.3605 65.4396 53.3605 65.1201C53.3605 64.8914 53.3157 64.526 53.0488 63.9768L45.0635 43.5417H52.6027Z" fill="#DB1E17"></path>
  <path d="M71.3425 61.1768C73.081 62.2688 75.6215 63.1791 78.2953 63.1791C82.2618 63.1791 84.5794 61.0406 84.5794 57.9463C84.5794 55.0805 82.9753 53.4419 78.9193 51.8491C74.0164 50.0753 70.9863 47.4819 70.9863 43.1593C70.9863 38.3817 74.8632 34.8333 80.7015 34.8333C83.7774 34.8333 86.0054 35.5616 87.3428 36.3347L86.2731 39.5652C85.2929 39.0196 83.2868 38.1084 80.5681 38.1084C76.4673 38.1084 74.908 40.6115 74.908 42.7042C74.908 45.571 76.736 46.981 80.8806 48.6196C85.9606 50.6209 88.5459 53.124 88.5459 57.6273C88.5459 62.3592 85.1138 66.4999 78.0276 66.4999C75.1309 66.4999 71.9665 65.5897 70.3624 64.4977L71.3425 61.1768Z" fill="#DB1E17"></path>
  <path d="M95.7255 55.0665C95.7255 59.8766 98.4773 63.5054 102.359 63.5054C106.149 63.5054 108.993 59.9212 108.993 54.9753C108.993 51.2553 107.143 46.5364 102.449 46.5364C97.7558 46.5364 95.7255 50.8916 95.7255 55.0665ZM113.054 54.8396C113.054 62.9614 107.459 66.5001 102.178 66.5001C96.2666 66.5001 91.7083 62.1449 91.7083 55.2023C91.7083 47.8514 96.4923 43.5417 102.54 43.5417C108.812 43.5417 113.054 48.1249 113.054 54.8396Z" fill="#DB1E17"></path>
  <path d="M117.975 49.9008C117.975 47.6621 117.93 45.8264 117.798 44.0347H121.213L121.391 47.5271H121.524C122.722 45.4675 124.719 43.5417 128.268 43.5417C131.196 43.5417 133.415 45.3335 134.346 47.8851H134.434C135.1 46.6763 135.943 45.7364 136.83 45.0645C138.117 44.0787 139.536 43.5417 141.577 43.5417C144.416 43.5417 148.631 45.4224 148.631 52.9463V65.7084H144.815V53.4382C144.815 49.2739 143.307 46.7662 140.157 46.7662C137.94 46.7662 136.209 48.423 135.543 50.3487C135.366 50.8856 135.233 51.6025 135.233 52.3194V65.7084H131.418V52.7224C131.418 49.2739 129.909 46.7662 126.936 46.7662C124.497 46.7662 122.722 48.737 122.101 50.7067C121.879 51.2886 121.791 51.9605 121.791 52.6324V65.7084H117.975V49.9008Z" fill="#DB1E17"></path>
  <path d="M168.571 52.888C168.616 50.3473 167.549 46.4005 163.15 46.4005C159.196 46.4005 157.463 50.1204 157.151 52.888H168.571ZM157.107 55.7468C157.196 61.1462 160.573 63.3688 164.484 63.3688C167.283 63.3688 168.971 62.8694 170.437 62.2352L171.104 65.093C169.727 65.7292 167.372 66.5001 163.95 66.5001C157.33 66.5001 153.374 62.0083 153.374 55.3841C153.374 48.7599 157.196 43.5417 163.461 43.5417C170.482 43.5417 172.348 49.8479 172.348 53.8868C172.348 54.7033 172.26 55.3385 172.215 55.7468H157.107Z" fill="#DB1E17"></path>
  <path d="M181.816 38.7917V44.0519H187.369V47.0906H181.816V58.9272C181.816 61.648 182.566 63.1901 184.725 63.1901C185.783 63.1901 186.4 63.099 186.973 62.9177L187.149 65.9108C186.4 66.2287 185.21 66.5001 183.712 66.5001C181.905 66.5001 180.45 65.8652 179.524 64.7778C178.422 63.5981 178.026 61.648 178.026 59.0629V47.0906H174.72V44.0519H178.026V40.0169L181.816 38.7917Z" fill="#DB1E17"></path>
  <path d="M191.322 34.0417H195.207V47.5105H195.294C195.912 46.3961 196.883 45.4152 198.075 44.746C199.222 44.0768 200.59 43.6307 202.046 43.6307C204.916 43.6307 209.506 45.4152 209.506 52.8631V65.7084H205.621V53.3092C205.621 49.8298 204.342 46.887 200.679 46.887C198.163 46.887 196.177 48.6706 195.471 50.8117C195.25 51.3464 195.207 51.927 195.207 52.6848V65.7084H191.322V34.0417Z" fill="#DB1E17"></path>
  <path d="M215.519 44.1372H219.347V65.7083H215.519V44.1372ZM219.782 38.076C219.826 39.4134 218.869 40.4832 217.346 40.4832C215.997 40.4832 215.04 39.4134 215.04 38.076C215.04 36.6948 216.04 35.625 217.432 35.625C218.869 35.625 219.782 36.6948 219.782 38.076Z" fill="#DB1E17"></path>
  <path d="M224.709 49.9008C224.709 47.6621 224.663 45.8264 224.527 44.0347H228.084L228.313 47.6171H228.404C229.499 45.5574 232.053 43.5417 235.702 43.5417C238.758 43.5417 243.501 45.3335 243.501 52.7664V65.7084H239.487V53.2143C239.487 49.7218 238.165 46.8112 234.379 46.8112C231.734 46.8112 229.681 48.647 228.997 50.8417C228.814 51.3336 228.723 52.0055 228.723 52.6774V65.7084H224.709V49.9008Z" fill="#DB1E17"></path>
  <path d="M264.031 52.628C264.031 51.953 263.987 51.3685 263.812 50.8282C263.112 48.5343 261.233 46.6451 258.434 46.6451C254.76 46.6451 252.136 49.8389 252.136 54.8777C252.136 59.1501 254.235 62.7035 258.39 62.7035C260.751 62.7035 262.893 61.1749 263.724 58.656C263.943 57.9811 264.031 57.2158 264.031 56.5408V52.628ZM267.835 62.6593C267.835 67.6518 266.873 70.711 264.818 72.6002C262.763 74.5797 259.789 75.2084 257.121 75.2084C254.586 75.2084 251.787 74.5797 250.081 73.4097L251.044 70.3956C252.443 71.2955 254.63 72.105 257.253 72.105C261.189 72.105 264.074 69.9909 264.074 64.5032V62.0747H263.987C262.807 64.0985 260.533 65.7175 257.253 65.7175C252.005 65.7175 248.245 61.1296 248.245 55.1016C248.245 47.7248 252.923 43.5417 257.778 43.5417C261.45 43.5417 263.463 45.5203 264.38 47.32H264.468L264.643 44.0359H268.009C267.923 45.6107 267.835 47.3653 267.835 50.0187V62.6593Z" fill="#DB1E17"></path>
  <path d="M274.16 44.3731H276.09V65.7084H274.16V44.3731ZM276.706 38.2835C276.706 39.2611 276.09 40.1056 275.063 40.1056C274.16 40.1056 273.544 39.2611 273.544 38.2835C273.544 37.306 274.241 36.4167 275.145 36.4167C276.09 36.4167 276.706 37.2613 276.706 38.2835Z" fill="#DB1E17"></path>
  <path d="M282.422 49.2298C282.422 47.2431 282.332 45.7533 282.24 44.0387H284.244L284.426 47.9658H284.516C285.7 45.5285 288.432 43.5417 292.03 43.5417C294.124 43.5417 299.633 44.58 299.633 52.7064V65.7084H297.493V52.8868C297.493 48.9597 295.945 45.3924 291.437 45.3924C288.342 45.3924 285.746 47.5596 284.881 50.3588C284.699 50.9001 284.562 51.6228 284.562 52.3002V65.7084H282.422V49.2298Z" fill="#DB1E17"></path>
  <path d="M328.358 0H305.694C301.481 0 298.052 3.4148 298.052 7.61112V29.3459C298.052 33.5423 301.481 36.9571 305.694 36.9571H309.403V52.25L313.995 47.3368L323.695 36.9571H328.358C332.571 36.9571 336 33.5423 336 29.3459V7.61112C336 3.4148 332.571 0 328.358 0ZM328.358 2.64036C331.103 2.64036 333.349 4.87684 333.349 7.61112V29.3459C333.349 32.0792 331.103 34.3167 328.358 34.3167H322.541L312.054 45.5385V34.3167H305.694C302.949 34.3167 300.703 32.0792 300.703 29.3459V7.61112C300.703 4.87684 302.949 2.64036 305.694 2.64036H328.358Z" fill="#DB1E17"></path>
</svg>