<svg xmlns="http://www.w3.org/2000/svg" viewBox="0 0 640 480">
  <rect width="640" height="480" fill="#fff"/>
  <rect y="53.3" width="640" height="53.3" fill="#000"/>
  <rect y="160" width="640" height="53.3" fill="#000"/>
  <rect y="266.7" width="640" height="53.3" fill="#000"/>
  <rect y="373.3" width="640" height="53.3" fill="#000"/>
  <rect y="426.7" width="640" height="53.3" fill="#000"/>
  <rect width="213.3" height="240" fill="#fff"/>
  <g fill="#000" transform="translate(26.7,26.7)">
    <polygon points="8,0 10,5 16,5 11,8 13,14 8,10 3,14 5,8 0,5 6,5"/>
    <polygon points="48,0 50,5 56,5 51,8 53,14 48,10 43,14 45,8 40,5 46,5"/>
    <polygon points="88,0 90,5 96,5 91,8 93,14 88,10 83,14 85,8 80,5 86,5"/>
    <polygon points="128,0 130,5 136,5 131,8 133,14 128,10 123,14 125,8 120,5 126,5"/>
    <polygon points="28,30 30,35 36,35 31,38 33,44 28,40 23,44 25,38 20,35 26,35"/>
    <polygon points="68,30 70,35 76,35 71,38 73,44 68,40 63,44 65,38 60,35 66,35"/>
    <polygon points="108,30 110,35 116,35 111,38 113,44 108,40 103,44 105,38 100,35 106,35"/>
    <polygon points="8,60 10,65 16,65 11,68 13,74 8,70 3,74 5,68 0,65 6,65"/>
    <polygon points="48,60 50,65 56,65 51,68 53,74 48,70 43,74 45,68 40,65 46,65"/>
    <polygon points="88,60 90,65 96,65 91,68 93,74 88,70 83,74 85,68 80,65 86,65"/>
    <polygon points="128,60 130,65 136,65 131,68 133,74 128,70 123,74 125,68 120,65 126,65"/>
  </g>
</svg>
