<svg xmlns="http://www.w3.org/2000/svg" viewBox="0 0 640 480">
  <rect width="640" height="240" fill="#fff"/>
  <rect y="240" width="640" height="240" fill="#00AB39"/>
  <g transform="translate(320,240) scale(1.6)">
    <path d="M-60,-80 L-40,-60 L-50,-40 L-30,-50 L-20,-30 L0,-60 L20,-30 L30,-50 L50,-40 L40,-60 L60,-80 L40,-70 L50,-90 L30,-80 L20,-100 L0,-70 L-20,-100 L-30,-80 L-50,-90 L-40,-70 Z" fill="#D42B2B"/>
    <ellipse cx="0" cy="-60" rx="15" ry="10" fill="#D42B2B"/>
    <path d="M-10,-50 L-15,0 L-5,10 L5,10 L15,0 L10,-50 Z" fill="#D42B2B"/>
    <path d="M-15,0 L-40,20 L-30,30 L-5,10 Z" fill="#D42B2B"/>
    <path d="M15,0 L40,20 L30,30 L5,10 Z" fill="#D42B2B"/>
    <path d="M-5,10 L-20,60 L-10,70 L0,50 L10,70 L20,60 L5,10 Z" fill="#D42B2B"/>
    <path d="M-20,60 L-40,50 L-35,65 L-20,60 Z" fill="#D42B2B"/>
    <path d="M20,60 L40,50 L35,65 L20,60 Z" fill="#D42B2B"/>
    <path d="M0,50 L-8,90 L0,80 L8,90 Z" fill="#D42B2B"/>
  </g>
</svg>
