<svg xmlns="http://www.w3.org/2000/svg" viewBox="0 0 640 480">
  <rect width="640" height="480" fill="#CF142B"/>
  <g transform="translate(320,220)" fill="none" stroke="#FFF" stroke-width="8">
    <g transform="rotate(0)">
      <path d="M0,-90 Q15,-60 0,-30 Q-10,-15 0,0" stroke-linecap="round"/>
      <line x1="0" y1="-90" x2="20" y2="-100"/>
      <line x1="0" y1="-90" x2="-5" y2="-105"/>
    </g>
    <g transform="rotate(120)">
      <path d="M0,-90 Q15,-60 0,-30 Q-10,-15 0,0" stroke-linecap="round"/>
      <line x1="0" y1="-90" x2="20" y2="-100"/>
      <line x1="0" y1="-90" x2="-5" y2="-105"/>
    </g>
    <g transform="rotate(240)">
      <path d="M0,-90 Q15,-60 0,-30 Q-10,-15 0,0" stroke-linecap="round"/>
      <line x1="0" y1="-90" x2="20" y2="-100"/>
      <line x1="0" y1="-90" x2="-5" y2="-105"/>
    </g>
  </g>
</svg>
